<?xml version="1.0" encoding="UTF-8" standalone="no"?>
<svg
   width="48"
   height="48"
   version="1.1"
   id="svg1"
   sodipodi:docname="unassigned.svg"
   inkscape:export-filename="unassigned.svg"
   inkscape:export-xdpi="288"
   inkscape:export-ydpi="288"
   inkscape:version="1.3.2 (091e20ef0f, 2023-11-25, custom)"
   xmlns:inkscape="http://www.inkscape.org/namespaces/inkscape"
   xmlns:sodipodi="http://sodipodi.sourceforge.net/DTD/sodipodi-0.dtd"
   xmlns="http://www.w3.org/2000/svg"
   xmlns:svg="http://www.w3.org/2000/svg">
  <defs
     id="defs1" />
  <sodipodi:namedview
     id="namedview1"
     pagecolor="#ffffff"
     bordercolor="#000000"
     borderopacity="0.25"
     inkscape:showpageshadow="2"
     inkscape:pageopacity="0.0"
     inkscape:pagecheckerboard="0"
     inkscape:deskcolor="#d1d1d1"
     inkscape:zoom="9.8994949"
     inkscape:cx="26.81955"
     inkscape:cy="17.67767"
     inkscape:window-width="1289"
     inkscape:window-height="880"
     inkscape:window-x="0"
     inkscape:window-y="0"
     inkscape:window-maximized="0"
     inkscape:current-layer="svg1" />
  <path
     d="M 3,0 A 2,2 0 0 0 1.012,1.779 l -1,9 A 2,2 0 0 0 2,13 h 12 a 2,2 0 0 0 1.988,-2.221 l -1,-9 A 2,2 0 0 0 13,0 Z m 6,2 v 7 h 2 v 2 H 5 V 9 H 7 V 4.5 L 5,5 V 3 Z M 0,13.203 V 13.75 C 0,14.962 1.04,16 2.25,16 h 11.5 C 14.962,16 16,14.962 16,13.75 V 13.203 A 2.96,2.96 0 0 1 14,14 H 2 A 2.959,2.959 0 0 1 0,13.203 Z"
     id="path1"
     transform="matrix(2.9999226,0,0,2.9999226,4.9548794e-4,3.0688881e-8)"
     inkscape:label="path1"
     style="fill:#bfbfbf;fill-opacity:1" />
</svg>
